<svg width="23" height="19" viewBox="0 0 23 19" fill="none" xmlns="http://www.w3.org/2000/svg">
<path d="M2.49609 15.9121C1.69922 15.9121 1.0957 15.7129 0.685547 15.3145C0.275391 14.9102 0.0703125 14.3008 0.0703125 13.4863V3.35254C0.0703125 2.54395 0.275391 1.94043 0.685547 1.54199C1.0957 1.1377 1.69922 0.935547 2.49609 0.935547H20.0039C20.8066 0.935547 21.4102 1.1377 21.8145 1.54199C22.2246 1.94043 22.4297 2.54395 22.4297 3.35254V13.4863C22.4297 14.3008 22.2246 14.9102 21.8145 15.3145C21.4102 15.7129 20.8066 15.9121 20.0039 15.9121H2.49609ZM6.75 18.9883C6.5332 18.9883 6.3457 18.9092 6.1875 18.751C6.0293 18.5928 5.9502 18.4053 5.9502 18.1885C5.9502 17.9717 6.0293 17.7842 6.1875 17.626C6.3457 17.4678 6.5332 17.3887 6.75 17.3887H15.75C15.9668 17.3887 16.1543 17.4678 16.3125 17.626C16.4707 17.7842 16.5498 17.9717 16.5498 18.1885C16.5498 18.4053 16.4707 18.5928 16.3125 18.751C16.1543 18.9092 15.9668 18.9883 15.75 18.9883H6.75ZM8.21777 12.1592C8.21777 12.4053 8.32031 12.5723 8.52539 12.6602C8.73633 12.7422 8.94434 12.7246 9.14941 12.6074L15.3018 8.99512C15.5303 8.86621 15.6416 8.67871 15.6357 8.43262C15.6357 8.18066 15.5215 7.99023 15.293 7.86133L9.14941 4.24023C8.94434 4.12305 8.73633 4.1084 8.52539 4.19629C8.32031 4.28418 8.21777 4.45117 8.21777 4.69727V12.1592Z" fill="#7A2FFA"/>
</svg>
